<?xml version="1.0" standalone="no"?>
<!DOCTYPE svg PUBLIC "-//W3C//DTD SVG 20010904//EN"
 "http://www.w3.org/TR/2001/REC-SVG-20010904/DTD/svg10.dtd">
<svg version="1.0" xmlns="http://www.w3.org/2000/svg"
 width="1254.000000pt" height="1254.000000pt" viewBox="0 0 1254.000000 1254.000000"
 preserveAspectRatio="xMidYMid meet">

<g transform="translate(0.000000,1254.000000) scale(0.100000,-0.100000)"
fill="#000000" stroke="none">
<path d="M0 6270 l0 -6270 6270 0 6270 0 0 6270 0 6270 -6270 0 -6270 0 0
-6270z m6080 3185 c63 -33 60 32 60 -1154 l0 -1080 -42 -78 c-149 -279 -224
-474 -265 -696 -26 -145 -24 -442 5 -575 72 -328 214 -595 434 -814 214 -213
461 -337 793 -400 100 -19 158 -21 640 -25 591 -5 550 0 625 -78 l35 -36 3
-549 c3 -608 3 -601 -60 -640 -33 -20 -45 -20 -1883 -20 -1816 0 -1851 0
-1882 20 -18 10 -39 30 -47 43 -14 21 -16 332 -16 3018 0 2888 0 2995 18 3019
10 14 34 33 53 42 31 17 89 18 767 18 636 0 737 -2 762 -15z"/>
<path d="M4565 9385 l-25 -24 0 -2980 0 -2980 26 -20 27 -21 1843 2 c1754 3
1844 4 1861 21 17 17 18 53 18 564 0 495 -2 547 -16 556 -14 9 -37 -10 -129
-106 -184 -191 -346 -311 -575 -423 -282 -137 -563 -203 -870 -204 -406 0
-790 125 -1100 358 -476 358 -748 915 -722 1481 15 317 110 609 285 871 180
271 421 478 734 633 l167 82 0 1092 1 1092 -22 15 c-20 14 -108 16 -751 16
l-728 0 -24 -25z"/>
<path d="M5894 7038 c-119 -62 -133 -71 -265 -174 -120 -94 -259 -245 -359
-390 -296 -430 -377 -967 -219 -1447 43 -129 139 -325 215 -439 157 -234 420
-457 685 -582 257 -122 505 -177 794 -177 217 0 412 31 605 97 299 102 569
280 795 523 76 82 78 86 55 92 -14 4 -83 5 -155 2 -187 -7 -752 13 -868 31
-278 44 -530 137 -737 273 -105 70 -315 278 -387 384 -233 341 -335 768 -277
1158 32 220 81 380 181 594 25 54 43 100 41 102 -2 3 -49 -18 -104 -47z"/>
</g>
</svg>
